<svg xmlns="http://www.w3.org/2000/svg" width="707.1" height="200"><path fill="#4fc08d" d="M0 150V50L86.6 0l86.6 50v100l-86.6 50z"/><path fill="#FFF" d="M86.6 133.3l-28.9-16.6V83.3l28.9-16.6 28.9 16.6 28.8-16.6-57.7-33.4-57.7 33.4v66.6l57.7 33.4 57.7-33.4-28.8-16.6z"/><path opacity=".04" stroke="#FFF" stroke-miterlimit="10" d="M0 50l86.6 50V0zm0 100l86.6 50V100z"/><path opacity=".08" stroke="#FFF" stroke-miterlimit="10" d="M86.6 100l86.6 50V50z"/><path fill="none" d="M86.6 100L0 50v100z"/><path opacity=".08" stroke="#FFF" stroke-miterlimit="10" d="M173.2 150l-86.6-50v100zm0-100L86.6 0v100z"/><path fill="#333" d="M290.4 127.3c1 0 1.8.4 2.6 1.1l7.2 7.8c-4 4.9-8.8 8.7-14.6 11.3-5.8 2.6-12.7 3.9-20.8 3.9-7.2 0-13.8-1.2-19.5-3.7-5.8-2.5-10.7-5.9-14.8-10.3-4.1-4.4-7.2-9.7-9.4-15.8-2.2-6.1-3.3-12.8-3.3-20 0-7.3 1.2-14.1 3.6-20.1 2.4-6.1 5.8-11.4 10.3-15.8 4.4-4.4 9.7-7.8 15.8-10.3s12.9-3.7 20.4-3.7c7.2 0 13.6 1.2 19 3.5s10.1 5.4 13.9 9.2l-6.1 8.4c-.4.5-.8 1-1.4 1.4s-1.3.6-2.3.6-2.1-.4-3.2-1.2-2.5-1.7-4.1-2.6c-1.7-.9-3.8-1.8-6.3-2.6s-5.8-1.2-9.7-1.2c-4.6 0-8.8.8-12.7 2.4-3.8 1.6-7.2 3.9-9.9 6.9s-4.9 6.6-6.5 10.8c-1.6 4.3-2.3 9-2.3 14.3 0 5.5.8 10.4 2.3 14.6 1.6 4.3 3.7 7.9 6.3 10.8 2.7 2.9 5.8 5.2 9.4 6.7 3.6 1.6 7.5 2.3 11.6 2.3 2.5 0 4.7-.1 6.7-.4 2-.3 3.8-.7 5.5-1.3s3.3-1.3 4.8-2.3c1.5-.9 3-2.1 4.5-3.4.4-.4.9-.7 1.4-1 .5-.2 1.1-.3 1.6-.3zm117.1-25.8c0 7.2-1.2 13.8-3.6 19.9s-5.7 11.4-10.1 15.8c-4.3 4.5-9.5 7.9-15.6 10.4s-12.8 3.7-20.2 3.7c-7.4 0-14.1-1.2-20.2-3.7s-11.3-6-15.7-10.4c-4.3-4.5-7.7-9.7-10.1-15.8-2.4-6.1-3.6-12.7-3.6-19.9 0-7.2 1.2-13.8 3.6-19.9s5.7-11.4 10.1-15.8c4.3-4.5 9.6-7.9 15.7-10.4s12.8-3.7 20.2-3.7c7.4 0 14.1 1.3 20.2 3.8s11.3 6 15.6 10.4c4.3 4.4 7.7 9.7 10.1 15.8 2.4 6 3.6 12.6 3.6 19.8zm-18.6 0c0-5.4-.7-10.2-2.1-14.4-1.4-4.3-3.5-7.9-6.1-10.8-2.7-3-5.9-5.2-9.7-6.8-3.8-1.6-8.1-2.4-12.9-2.4s-9.1.8-12.9 2.4-7.1 3.8-9.8 6.8c-2.7 3-4.7 6.6-6.2 10.8-1.4 4.3-2.2 9.1-2.2 14.4 0 5.4.7 10.2 2.2 14.4 1.4 4.3 3.5 7.9 6.2 10.8s5.9 5.2 9.8 6.8c3.8 1.6 8.1 2.4 12.9 2.4s9.1-.8 12.9-2.4c3.8-1.6 7-3.8 9.7-6.8 2.7-2.9 4.7-6.5 6.1-10.8 1.4-4.2 2.1-9 2.1-14.4zm51.7 10.7v38.1h-18.2V52.7h29.8c6.7 0 12.4.7 17.1 2.1 4.7 1.4 8.6 3.3 11.7 5.8 3 2.5 5.3 5.4 6.7 8.9 1.4 3.4 2.1 7.2 2.1 11.4 0 3.3-.5 6.4-1.5 9.3s-2.4 5.6-4.2 8c-1.8 2.4-4.1 4.5-6.8 6.3-2.7 1.8-5.7 3.2-9.1 4.3 2.3 1.3 4.3 3.2 5.9 5.6l24.4 36h-16.3c-1.6 0-2.9-.3-4-.9-1.1-.6-2-1.5-2.8-2.7l-20.5-31.3c-.8-1.2-1.6-2-2.5-2.5s-2.3-.7-4.1-.7h-7.7v-.1zm0-13.1h11.3c3.4 0 6.4-.4 8.9-1.3s4.6-2 6.3-3.5c1.6-1.5 2.9-3.3 3.7-5.4.8-2.1 1.2-4.3 1.2-6.8 0-4.9-1.6-8.8-4.9-11.4-3.3-2.7-8.2-4-15-4h-11.6v32.4h.1zm131.2-46.4v14.4h-43.3v27.1h34.1v14h-34.1v27.6h43.3v14.5h-61.6V52.7h61.6z"/><path fill="#4fc08d" d="M626.8 135.7c3.5 0 6.6-.6 9.4-1.8 2.8-1.2 5.1-2.8 7-4.9 1.9-2.1 3.4-4.7 4.4-7.7s1.5-6.4 1.5-10.1V52.7h18.2v58.5c0 5.8-.9 11.2-2.8 16.1-1.9 4.9-4.6 9.2-8.1 12.8-3.5 3.6-7.8 6.4-12.8 8.4s-10.6 3-16.9 3-11.9-1-16.9-3-9.2-4.8-12.7-8.4c-3.5-3.6-6.2-7.8-8-12.8-1.9-4.9-2.8-10.3-2.8-16.1V52.7h18.2v58.4c0 3.7.5 7.1 1.5 10.1s2.5 5.6 4.4 7.7 4.2 3.8 7 5c2.7 1.2 5.9 1.8 9.4 1.8zm79.4 14.6H688V52.7h18.2v97.6z"/><path d="M599.558 183.654v15.016h-7.936v-42.657h13.895c2.852 0 5.32.335 7.404 1.003 2.085.669 3.806 1.604 5.163 2.803a11.003 11.003 0 0 1 3.009 4.307c.649 1.672.974 3.501.974 5.487 0 2.065-.345 3.958-1.032 5.679a11.78 11.78 0 0 1-3.098 4.439c-1.377 1.239-3.098 2.203-5.163 2.892-2.064.688-4.483 1.032-7.257 1.032h-5.959v-.001zm0-6.195h5.959c1.455 0 2.724-.182 3.806-.545 1.081-.364 1.977-.886 2.685-1.563.708-.679 1.239-1.505 1.593-2.479s.531-2.06.531-3.26c0-1.141-.177-2.173-.531-3.098a6.115 6.115 0 0 0-1.593-2.359c-.708-.649-1.604-1.146-2.685-1.49-1.082-.344-2.351-.517-3.806-.517h-5.959v15.311zm36.875 4.543v16.668h-7.936v-42.657h13.01c2.91 0 5.403.301 7.479.9 2.074.6 3.775 1.44 5.104 2.521 1.327 1.082 2.301 2.375 2.92 3.88.62 1.504.93 3.161.93 4.971 0 1.436-.212 2.793-.635 4.07a11.761 11.761 0 0 1-1.829 3.481c-.796 1.043-1.779 1.957-2.949 2.743-1.171.787-2.503 1.416-3.998 1.889 1.004.57 1.868 1.386 2.597 2.448l10.679 15.753h-7.139c-.688 0-1.273-.138-1.756-.413a3.583 3.583 0 0 1-1.224-1.18l-8.969-13.659c-.334-.511-.703-.874-1.105-1.091-.403-.217-.999-.325-1.785-.325l-3.394.001zm0-5.693h4.956c1.494 0 2.798-.187 3.909-.561 1.11-.373 2.025-.89 2.743-1.549a6.195 6.195 0 0 0 1.607-2.345c.354-.904.531-1.897.531-2.979 0-2.163-.713-3.825-2.139-4.985s-3.604-1.741-6.534-1.741h-5.074l.001 14.16zm69.945 1.033c0 3.127-.521 6.022-1.563 8.688-1.043 2.665-2.508 4.971-4.396 6.918-1.888 1.946-4.159 3.466-6.814 4.558-2.655 1.091-5.596 1.637-8.82 1.637-3.226 0-6.171-.546-8.836-1.637-2.665-1.092-4.946-2.611-6.844-4.558-1.898-1.947-3.368-4.253-4.41-6.918-1.043-2.665-1.563-5.561-1.563-8.688s.521-6.023 1.563-8.688c1.042-2.664 2.512-4.971 4.41-6.917 1.897-1.947 4.179-3.467 6.844-4.559 2.665-1.091 5.61-1.637 8.836-1.637 3.225 0 6.165.551 8.82 1.652s4.927 2.62 6.814 4.558 3.353 4.238 4.396 6.902c1.042 2.665 1.563 5.562 1.563 8.689zm-8.142 0c0-2.341-.31-4.44-.929-6.299s-1.51-3.437-2.67-4.734-2.571-2.291-4.233-2.979-3.535-1.032-5.619-1.032c-2.085 0-3.964.344-5.635 1.032-1.672.688-3.093 1.682-4.263 2.979-1.171 1.298-2.07 2.876-2.699 4.734-.63 1.858-.944 3.958-.944 6.299 0 2.34.314 4.439.944 6.298.629 1.858 1.528 3.433 2.699 4.72 1.17 1.289 2.591 2.277 4.263 2.965 1.671.688 3.55 1.032 5.635 1.032 2.084 0 3.957-.344 5.619-1.032 1.662-.688 3.073-1.676 4.233-2.965 1.16-1.287 2.051-2.861 2.67-4.72s.929-3.958.929-6.298z" fill="#AAA"/></svg>