<svg xmlns="http://www.w3.org/2000/svg" width="173.2" height="200"><path fill="#4fc08d" d="M0 150V50L86.6 0l86.6 50v100l-86.6 50z"/><path fill="#FFF" d="M86.6 133.3l-28.9-16.6V83.3l28.9-16.6 28.9 16.6 28.8-16.6-57.7-33.4-57.7 33.4v66.6l57.7 33.4 57.7-33.4-28.8-16.6z"/><path opacity=".04" stroke="#FFF" stroke-miterlimit="10" d="M0 50l86.6 50V0zm0 100l86.6 50V100z"/><path opacity=".08" stroke="#FFF" stroke-miterlimit="10" d="M86.6 100l86.6 50V50z"/><path fill="none" d="M86.6 100L0 50v100z"/><path opacity=".08" stroke="#FFF" stroke-miterlimit="10" d="M173.2 150l-86.6-50v100zm0-100L86.6 0v100z"/></svg>